<?xml version="1.0" encoding="UTF-8" standalone="no"?>
<!-- Created with Inkscape (http://www.inkscape.org/) -->

<svg
   xmlns:dc="http://purl.org/dc/elements/1.1/"
   xmlns:cc="http://creativecommons.org/ns#"
   xmlns:rdf="http://www.w3.org/1999/02/22-rdf-syntax-ns#"
   xmlns:svg="http://www.w3.org/2000/svg"
   xmlns="http://www.w3.org/2000/svg"
   version="1.1"
   width="512"
   height="512"
   id="svg2"
   xml:space="preserve"><metadata
     id="metadata8"><rdf:RDF><cc:Work
         rdf:about=""><dc:format>image/svg+xml</dc:format><dc:type
           rdf:resource="http://purl.org/dc/dcmitype/StillImage" /><dc:title></dc:title></cc:Work></rdf:RDF></metadata><defs
     id="defs6"><clipPath
       id="clipPath16"><path
         d="M 0,792 612,792 612,0 0,0 0,792 z"
         id="path18" /></clipPath></defs><g
     transform="matrix(1.25,0,0,-1.25,0,512)"
     id="g10"><g
       transform="matrix(6.0925135,0,0,6.0925135,126.22201,-3836.5053)"
       id="g3535"><g
         transform="translate(35.575994,687.21168)"
         id="g24"><path
           d="m 0,0 c -0.639,-0.683 -1.691,-2.175 -2.451,-3.288 0.219,-0.738 -0.84,-4.543 -1.678,-5.938 -0.902,-1.504 -2.365,-1.726 -3.441,-1.08 -0.159,0.096 -0.313,0.22 -0.463,0.358 -3.145,-3.503 -7.406,-8.236 -11.319,-12.541 0.362,0.171 0.803,0.275 1.362,0.273 1.613,-0.008 5.422,-2.001 6.424,-2.835 0.705,0.081 1.347,0.176 1.81,0.284 1.957,0.457 3.686,0.705 3.686,0.705 0,0 -2.787,-0.873 -5.285,-1.421 -0.36,-0.78 -3.401,-3.207 -6.657,-1.548 -1.656,0.843 -2.539,1.089 -2.533,2.419 0.002,0.355 0.057,0.689 0.164,0.992 -1.328,-1.46 -2.596,-2.846 -3.748,-4.096 0.277,0.075 0.584,0.125 0.947,0.124 1.627,-0.007 5.489,-2.036 6.452,-2.857 1.437,0.219 2.894,0.481 3.798,0.758 2.301,0.702 4.327,1.131 4.327,1.131 0,0 -5.01,-1.939 -8.18,-2.634 -0.844,-0.961 -3.547,-2.677 -6.418,-1.213 -1.656,0.844 -2.539,1.089 -2.533,2.418 0,0.209 0.025,0.407 0.06,0.599 -1.656,-1.783 -2.926,-3.118 -3.543,-3.705 -0.242,-0.23 -0.529,-0.527 -0.844,-0.869 0.43,0.414 1.075,0.672 2.002,0.668 1.848,-0.008 6.428,-2.487 6.983,-3.189 1.381,0.213 2.76,0.466 3.627,0.732 2.301,0.701 4.326,1.131 4.326,1.131 0,0 -5.227,-2.024 -8.379,-2.68 -1.062,-1.028 -3.74,-2.523 -6.578,-1.077 -1.748,0.892 -2.684,1.15 -2.676,2.554 0.002,0.652 0.17,1.24 0.537,1.688 -1.086,-1.198 -2.525,-2.944 -4.06,-4.875 0.355,0.126 0.773,0.197 1.273,0.195 1.762,-0.008 5.873,-2.146 7.07,-3.1 1.344,0.21 2.672,0.457 3.516,0.715 2.301,0.702 4.326,1.131 4.326,1.131 0,0 -4.449,-1.721 -7.615,-2.502 -0.625,-0.971 -3.861,-3.358 -7.32,-1.596 -1.84,0.938 -2.823,1.211 -2.817,2.688 0.002,0.181 0.014,0.359 0.039,0.531 -3.89,-4.985 -7.832,-10.324 -7.832,-10.324 l -1.841,0.853 c 0,0 4.623,5.884 8.498,10.458 -0.264,-0.081 -0.543,-0.138 -0.84,-0.154 -1.475,-0.083 -1.797,0.884 -2.828,2.673 -1.907,3.304 0.203,6.607 1.166,7.363 0.599,3.204 2.05,7.72 2.05,7.72 0,0 -0.31,-2.047 -0.877,-4.384 -0.203,-0.837 -0.369,-2.132 -0.5,-3.449 0.993,-1.086 3.401,-5.168 3.502,-6.951 0.02,-0.35 -0.009,-0.654 -0.058,-0.936 1.08,1.244 1.912,2.194 3.226,3.612 -0.158,-0.031 -0.324,-0.052 -0.494,-0.061 -1.4,-0.078 -1.707,0.84 -2.687,2.539 -1.555,2.699 -0.293,5.396 0.674,6.556 0.47,3.186 2.187,8.522 2.187,8.522 0,0 -0.31,-2.046 -0.879,-4.384 -0.209,-0.862 -0.379,-2.212 -0.51,-3.572 0.62,-0.275 3.497,-4.935 3.604,-6.837 0.016,-0.289 -0.002,-0.545 -0.035,-0.785 0.996,1.051 2.232,2.338 3.816,3.978 -0.314,-0.142 -0.666,-0.227 -1.049,-0.25 -1.328,-0.072 -1.619,0.797 -2.547,2.407 -1.71,2.97 0.18,5.939 1.047,6.625 0.586,3.209 2.073,7.832 2.073,7.832 0,0 -0.311,-2.046 -0.877,-4.384 -0.213,-0.874 -0.385,-2.248 -0.516,-3.627 0.928,-1.077 2.994,-4.611 3.082,-6.176 0.031,-0.564 -0.053,-1.015 -0.209,-1.386 1.266,1.309 2.733,2.821 4.447,4.588 -0.38,-0.265 -0.855,-0.405 -1.379,-0.434 -1.328,-0.075 -1.619,0.796 -2.548,2.405 -1.907,3.309 0.652,6.607 1.293,6.758 0.406,2.477 1.082,5.176 1.082,5.176 0,0 -0.147,-1.741 -0.489,-3.719 -0.078,-0.453 -0.134,-1.073 -0.173,-1.752 0.919,-1.057 3.007,-4.619 3.097,-6.193 0.041,-0.754 -0.111,-1.319 -0.39,-1.735 3.181,3.275 7.177,7.385 12.287,12.635 -0.756,0.819 -1.231,2.117 -0.524,3.297 0.752,1.251 4.281,2.822 5.68,3.203 0.254,0.331 0.576,0.746 0.998,1.289 1.344,1.727 4.041,4.219 4.041,4.219 C 1.959,2.265 1.084,1.159 0,0 m -2.453,-19.501 c 0,0 -1.996,-0.541 -4.07,-0.96 -0.358,-0.779 -3.399,-3.208 -6.657,-1.549 -1.654,0.844 -2.539,1.089 -2.533,2.419 0.006,1.33 0.697,2.404 2.555,2.397 1.685,-0.007 5.76,-2.18 6.533,-2.937 0.26,0.031 0.498,0.066 0.697,0.105 1.842,0.354 3.475,0.525 3.475,0.525 m 0.012,4.067 c 0.037,-0.521 -3.026,-3.272 -6.321,-1.594 -1.564,0.797 -2.398,1.028 -2.392,2.284 0.006,1.256 0.658,2.271 2.412,2.264 1.523,-0.007 5.121,-1.89 6.066,-2.678 0.317,0.01 0.602,0.026 0.828,0.052 1.577,0.177 2.985,0.22 2.985,0.22 0,0 -1.768,-0.332 -3.578,-0.548 m -16.485,6.357 c 0.295,2.042 0.699,3.976 0.699,3.976 0,0 -0.076,-1.642 -0.322,-3.501 -0.023,-0.177 -0.041,-0.387 -0.056,-0.612 0.828,-0.816 3.14,-4.682 3.234,-6.34 0.103,-1.855 -0.936,-2.599 -2.262,-2.675 -1.328,-0.075 -1.619,0.794 -2.547,2.406 -1.871,3.246 0.555,6.482 1.254,6.746 m 4.752,4.349 c 0.002,0 0.002,-0.001 0.004,-0.001 0.111,1.789 0.334,3.515 0.334,3.515 0,0 0.037,-1.408 -0.047,-2.992 -0.012,-0.207 -0.013,-0.459 -0.008,-0.739 0.836,-0.9 2.905,-4.401 2.991,-5.923 0.099,-1.752 -0.883,-2.456 -2.135,-2.526 -1.254,-0.07 -1.529,0.751 -2.406,2.272 -1.848,3.203 0.746,6.407 1.267,6.394 m 20.207,10.882 -56.803,0 c -0.994,0 -1.8,-0.805 -1.8,-1.8 l 0,-56.802 c 0,-0.994 0.806,-1.8 1.8,-1.8 l 56.803,0 c 0.994,0 1.799,0.806 1.799,1.8 l 0,56.802 c 0,0.995 -0.805,1.8 -1.799,1.8"
           id="path26"
           style="fill:#904f75;fill-opacity:1;fill-rule:nonzero;stroke:none" /></g></g><g
       transform="translate(-59.278006,653.54568)"
       id="g28"><path
         d="m 0,0 c -4.467,0 -8.088,2.356 -8.088,5.264 0,2.907 3.621,5.263 8.088,5.263 4.467,0 10.912,-3.465 10.912,-5.135 C 10.912,3.724 4.467,0 0,0 m -24,-3 c -4.467,0 -8.088,2.357 -8.088,5.264 0,2.907 3.621,5.263 8.088,5.263 4.467,0 10.912,-3.465 10.912,-5.135 C -13.088,0.724 -19.533,-3 -24,-3 m 8.5,24.764 c 4.467,0 10.912,-3.466 10.912,-5.136 0,-1.668 -6.445,-5.391 -10.912,-5.391 -4.467,0 -8.088,2.356 -8.088,5.263 0,2.907 3.621,5.264 8.088,5.264 m 33.166,18.056 -56.803,0 c -0.994,0 -1.8,-0.805 -1.8,-1.799 l 0,-56.803 c 0,-0.994 0.806,-1.8 1.8,-1.8 l 56.803,0 c 0.994,0 1.8,0.806 1.8,1.8 l 0,56.803 c 0,0.994 -0.806,1.799 -1.8,1.799"
         id="path30"
         style="fill:#b18c54;fill-opacity:1;fill-rule:nonzero;stroke:none" /></g><g
       transform="translate(5.2634937,882.87968)"
       id="g56"><path
         d="m 0,0 c -1.08,0 -1.955,-0.875 -1.955,-1.955 0,-1.08 0.875,-1.955 1.955,-1.955 1.078,0 1.953,0.875 1.953,1.955 C 1.953,-0.875 1.078,0 0,0"
         id="path58"
         style="fill:#984b3b;fill-opacity:1;fill-rule:nonzero;stroke:none" /></g><g
       transform="translate(-130.68421,675.52708)"
       id="g156"><path
         d="m 0,0 -2.256,-2.257 c -0.284,-0.284 -0.744,-0.284 -1.028,0 l -1.971,1.971 c -0.284,0.284 -0.284,0.744 0,1.028 l 2.256,2.256 c 0.284,0.283 0.744,0.283 1.028,0 L 0,1.027 C 0.284,0.743 0.284,0.283 0,0 m -2.427,-5.998 -2.257,-2.256 c -0.284,-0.284 -0.744,-0.284 -1.028,0 l -1.971,1.971 c -0.284,0.283 -0.284,0.743 0,1.027 L -5.426,-3 c 0.283,0.284 0.744,0.284 1.028,0 l 1.97,-1.971 c 0.284,-0.283 0.284,-0.744 10e-4,-1.027 m -4.391,-28.72 -5,12 c 0,0 -13.658,-11.468 -19.798,-12.182 -4.358,-0.506 -11.073,6.209 -10.566,10.566 0.714,6.141 11.364,19.116 11.364,19.116 l -9,4.5 13.343,2.374 3.142,-2.571 -3.682,-8.536 1.597,1.597 c 0.284,0.284 0.744,0.284 1.028,0 l 1.971,-1.971 c 0.284,-0.284 0.284,-0.745 0,-1.029 l -2.256,-2.255 c -0.284,-0.285 -0.744,-0.285 -1.029,0 l -1.97,1.97 c -0.017,0.018 -0.03,0.037 -0.045,0.055 l -0.519,-1.205 1.677,-1.678 c 0.285,-0.283 0.285,-0.744 0.001,-1.027 l -2.256,-2.257 c -0.285,-0.284 -0.745,-0.284 -1.029,0 l -0.373,0.373 -0.516,-1.196 0.032,-0.033 c 0.285,-0.285 0.285,-0.745 0.001,-1.029 l -0.862,-0.861 -1.688,-3.915 c 0.08,-0.035 0.156,-0.084 0.222,-0.151 l 1.885,-1.884 1.325,0.57 c -0.14,0.026 -0.274,0.092 -0.383,0.201 l -1.97,1.971 c -0.285,0.283 -0.285,0.744 0,1.027 l 2.256,2.257 c 0.284,0.284 0.744,0.284 1.028,0 l 1.971,-1.971 c 0.284,-0.284 0.284,-0.744 0,-1.028 l -2.12,-2.119 2.762,1.191 0.143,0.143 c 0.177,0.177 0.423,0.244 0.652,0.199 l 1.32,0.57 -0.088,0.088 c -0.283,0.284 -0.283,0.744 0.001,1.028 l 2.256,2.256 c 0.284,0.284 0.744,0.284 1.028,0 l 1.393,-1.393 1.197,0.518 -1.733,1.732 c -0.284,0.283 -0.284,0.744 0,1.027 l 2.256,2.257 c 0.284,0.284 0.745,0.284 1.028,0 l 1.971,-1.971 c 0.284,-0.284 0.284,-0.744 0,-1.028 l -0.878,-0.878 7.532,3.249 2.571,-3.141 -1.192,-15.526 z m -13.431,31.005 1.971,-1.971 c 0.284,-0.285 0.284,-0.744 0,-1.028 l -2.256,-2.257 c -0.284,-0.283 -0.744,-0.283 -1.029,0 l -1.97,1.971 c -0.284,0.284 -0.284,0.744 0,1.028 l 2.256,2.256 c 0.284,0.284 0.744,0.284 1.028,10e-4 m 0.857,1.885 2.256,2.256 c 0.284,0.284 0.744,0.284 1.028,0 l 1.971,-1.971 c 0.284,-0.283 0.284,-0.744 0,-1.028 l -2.256,-2.257 c -0.284,-0.283 -0.744,-0.283 -1.028,0 l -1.971,1.972 c -0.284,0.283 -0.284,0.744 0,1.028 m 4.141,4.141 2.256,2.255 c 0.284,0.285 0.745,0.285 1.028,0 l 1.971,-1.97 c 0.284,-0.284 0.284,-0.744 0,-1.028 l -2.256,-2.256 c -0.284,-0.285 -0.744,-0.285 -1.028,0 l -1.971,1.971 c -0.284,0.283 -0.284,0.743 0,1.028 m 5.755,-6.784 -1.971,1.971 c -0.283,0.284 -0.283,0.744 0,1.028 l 2.257,2.257 c 0.283,0.283 0.744,0.283 1.027,0 l 1.971,-1.971 c 0.284,-0.285 0.284,-0.744 10e-4,-1.028 l -2.257,-2.257 c -0.284,-0.283 -0.744,-0.283 -1.028,0 m -2.328,-5.954 c -0.284,0.284 -0.284,0.744 0,1.029 l 2.257,2.255 c 0.283,0.285 0.744,0.285 1.027,0 l 1.971,-1.97 c 0.284,-0.284 0.284,-0.744 0.001,-1.028 l -2.257,-2.257 c -0.284,-0.284 -0.744,-0.284 -1.028,0 l -1.971,1.971 z m -4.141,-3.113 2.257,2.257 c 0.283,0.283 0.744,0.283 1.027,0 l 1.971,-1.971 c 0.284,-0.285 0.284,-0.744 0,-1.028 l -2.256,-2.257 c -0.284,-0.283 -0.744,-0.283 -1.028,0 l -1.971,1.971 c -0.284,0.285 -0.284,0.744 0,1.028 m 0.357,7.926 2.256,2.256 c 0.284,0.284 0.745,0.284 1.028,0 l 1.971,-1.971 c 0.284,-0.284 0.284,-0.745 0,-1.028 l -2.256,-2.256 c -0.284,-0.285 -0.745,-0.285 -1.028,0 l -1.971,1.97 c -0.284,0.284 -0.284,0.745 0,1.029 m -4.141,-5.169 c -0.284,0.283 -0.284,0.743 0,1.027 l 2.256,2.256 c 0.284,0.284 0.744,0.284 1.028,0 l 1.971,-1.971 c 0.284,-0.283 0.284,-0.744 0,-1.027 l -2.256,-2.257 c -0.284,-0.283 -0.744,-0.283 -1.028,10e-4 l -1.971,1.971 z m -3.027,-7.997 -2.256,-2.257 c -0.284,-0.283 -0.745,-0.283 -1.029,0 l -1.97,1.971 c -0.284,0.284 -0.284,0.744 0,1.028 l 2.256,2.257 c 0.284,0.283 0.744,0.283 1.028,0 l 1.971,-1.971 c 0.284,-0.285 0.284,-0.744 0,-1.028 m -1.114,3.855 c -0.284,0.284 -0.284,0.743 0,1.028 l 2.256,2.256 c 0.284,0.285 0.744,0.284 1.028,0 l 1.971,-1.97 c 0.284,-0.285 0.284,-0.745 0,-1.029 l -2.256,-2.257 c -0.284,-0.283 -0.744,-0.283 -1.028,0 l -1.971,1.972 z m 14.851,19.448 2.256,2.257 c 0.284,0.284 0.744,0.284 1.028,0 l 1.971,-1.97 C -3.5,4.527 -3.5,4.067 -3.784,3.783 L -6.041,1.527 c -0.283,-0.284 -0.744,-0.283 -1.027,0 l -1.971,1.971 c -0.284,0.284 -0.284,0.744 0,1.027 m 15.051,13.314 -56.803,0 c -0.994,0 -1.8,-0.806 -1.8,-1.8 l 0,-56.803 c 0,-0.994 0.806,-1.799 1.8,-1.799 l 56.803,0 c 0.994,0 1.8,0.805 1.8,1.799 l 0,56.803 c 0,0.994 -0.806,1.8 -1.8,1.8"
         id="path158"
         style="fill:#d79f54;fill-opacity:1;fill-rule:nonzero;stroke:none" /></g></g></svg>