<?xml version="1.0" encoding="utf-8"?>
<!-- Generator: Adobe Illustrator 28.2.0, SVG Export Plug-In . SVG Version: 6.00 Build 0)  -->
<svg version="1.1" id="Capa_1" xmlns="http://www.w3.org/2000/svg" xmlns:xlink="http://www.w3.org/1999/xlink" x="0px" y="0px"
	 viewBox="0 0 100 100" style="enable-background:new 0 0 100 100;" xml:space="preserve">
<style type="text/css">
	.st0{fill-rule:evenodd;clip-rule:evenodd;fill:#FFFFFF;}
	.st1{fill:#FFFFFF;}
</style>
<path class="st0" d="M50,60.9c6,0,10.9-4.9,10.9-10.9S56,39.1,50,39.1S39.1,44,39.1,50C39,56,43.9,60.9,50,60.9z M50,57.2
	c4,0,7.3-3.3,7.3-7.3S54,42.6,50,42.6s-7.3,3.3-7.3,7.3C42.7,54,45.9,57.2,50,57.2z"/>
<path class="st1" d="M60.9,37.2c-1,0-1.8,0.8-1.8,1.8s0.8,1.8,1.8,1.8s1.8-0.8,1.8-1.8S61.9,37.2,60.9,37.2z"/>
<path class="st0" d="M31.1,35.9c-1.2,2.3-1.2,5.4-1.2,11.5v5.1c0,6.1,0,9.2,1.2,11.5c1,2.1,2.7,3.7,4.8,4.8C38.2,70,41.3,70,47.4,70
	h5.1c6.1,0,9.2,0,11.5-1.2c2.1-1,3.7-2.7,4.8-4.8C70,61.7,70,58.6,70,52.5v-5.1c0-6.1,0-9.2-1.2-11.5c-1-2.1-2.7-3.7-4.8-4.8
	c-2.3-1.2-5.4-1.2-11.5-1.2h-5.1c-6.1,0-9.2,0-11.5,1.2C33.9,32.2,32.2,33.9,31.1,35.9z M52.5,33.6h-5.1c-3.1,0-5.2,0-6.9,0.1
	c-1.6,0.1-2.4,0.4-3,0.7c-1.4,0.7-2.5,1.8-3.2,3.2c-0.3,0.6-0.5,1.4-0.7,3c-0.1,1.6-0.1,3.8-0.1,6.9v5.1c0,3.1,0,5.2,0.1,6.9
	c0.1,1.6,0.4,2.4,0.7,3c0.7,1.4,1.8,2.5,3.2,3.2c0.6,0.3,1.4,0.5,3,0.7c1.6,0.1,3.8,0.1,6.9,0.1h5.1c3.1,0,5.2,0,6.9-0.1
	c1.6-0.1,2.4-0.4,3-0.7c1.4-0.7,2.5-1.8,3.2-3.2c0.3-0.6,0.5-1.4,0.7-3c0.1-1.6,0.1-3.8,0.1-6.9v-5.1c0-3.1,0-5.2-0.1-6.9
	c-0.1-1.6-0.4-2.4-0.7-3c-0.7-1.4-1.8-2.5-3.2-3.2c-0.6-0.3-1.4-0.5-3-0.7C57.7,33.6,55.6,33.6,52.5,33.6z"/>
</svg>
