<?xml version="1.0" encoding="utf-8"?>
<!-- Generator: Adobe Illustrator 28.2.0, SVG Export Plug-In . SVG Version: 6.00 Build 0)  -->
<svg version="1.1" id="Capa_1" xmlns="http://www.w3.org/2000/svg" xmlns:xlink="http://www.w3.org/1999/xlink" x="0px" y="0px"
	 viewBox="0 0 100 100" style="enable-background:new 0 0 100 100;" xml:space="preserve">
<style type="text/css">
	.st0{fill:#FFFFFF;stroke:#FFFFFF;stroke-linecap:round;stroke-linejoin:round;stroke-miterlimit:66.6667;}
	.st1{fill:none;stroke:#FFFFFF;stroke-linecap:round;stroke-linejoin:round;stroke-miterlimit:66.6667;}
</style>
<g>
	<path class="st0" d="M50,56.7V60h14.8c2.9,0,5.2-2.3,5.2-5.2c0-2.9-2.3-5.2-5.2-5.2c-0.5,0-1.1,0.1-1.6,0.3c0-0.1,0-0.2,0-0.3
		c0-4.7-3.8-8.5-8.5-8.5c-1.7,0-3.3,0.5-4.7,1.4l0,0L50,56.7L50,56.7z"/>
	<line class="st1" x1="30" y1="50.9" x2="30" y2="57.5"/>
	<line class="st1" x1="32.9" y1="48.4" x2="32.9" y2="59.2"/>
	<line class="st1" x1="35.7" y1="49.2" x2="35.7" y2="60"/>
	<line class="st1" x1="38.6" y1="60" x2="38.6" y2="46.3"/>
	<line class="st1" x1="41.4" y1="45.3" x2="41.4" y2="60"/>
	<line class="st1" x1="44.3" y1="60" x2="44.3" y2="46.3"/>
	<line class="st1" x1="47.1" y1="44.3" x2="47.1" y2="60"/>
</g>
</svg>
