<?xml version="1.0" encoding="utf-8"?>
<!-- Generator: Adobe Illustrator 28.2.0, SVG Export Plug-In . SVG Version: 6.00 Build 0)  -->
<svg version="1.1" id="Capa_1" xmlns="http://www.w3.org/2000/svg" xmlns:xlink="http://www.w3.org/1999/xlink" x="0px" y="0px"
	 viewBox="0 0 100 100" style="enable-background:new 0 0 100 100;" xml:space="preserve">
<style type="text/css">
	.st0{fill:#FFFFFF;stroke:#FFFFFF;stroke-width:0.75;stroke-linecap:round;stroke-linejoin:round;stroke-miterlimit:128;}
	.st1{fill:#FFFFFF;stroke:#1C76AA;stroke-width:2;stroke-linecap:round;stroke-linejoin:round;stroke-miterlimit:128;}
</style>
<g>
	<path class="st0" d="M64.2,67.5c5.8,0.2,10.6-4.3,10.8-10V42.6c-0.2-5.8-5.1-10.3-10.8-10H35.9c-5.8-0.2-10.6,4.3-10.8,10v14.9
		c0.2,5.8,5.1,10.3,10.8,10H64.2z"/>
	<path class="st1" d="M48.8,42.9l7.9,5.4c0.5,0.3,0.8,0.8,0.8,1.4s-0.3,1.1-0.8,1.4L48.8,57c-1.5,1-3.8,0.1-3.8-1.4V44.4
		C45,42.8,47.3,41.9,48.8,42.9z"/>
</g>
</svg>
