<?xml version="1.0" encoding="utf-8"?>
<!-- Generator: Adobe Illustrator 28.2.0, SVG Export Plug-In . SVG Version: 6.00 Build 0)  -->
<svg version="1.1" id="Capa_1" xmlns="http://www.w3.org/2000/svg" xmlns:xlink="http://www.w3.org/1999/xlink" x="0px" y="0px"
	 viewBox="0 0 800 800" style="enable-background:new 0 0 800 800;" xml:space="preserve">
<style type="text/css">
	.st0{fill:#FFFFFF;stroke:#FFFFFF;stroke-width:3;stroke-linecap:round;stroke-linejoin:round;stroke-miterlimit:133.3333;}
</style>
<path class="st0" d="M402,416c-1,0-3,0-5,0c-35-1-63-30-63-65c0-36,29-66,66-66c36,0,66,29,66,66C465,386,438,414,402,416z"/>
<path class="st0" d="M535,548c-36,33-83,52-135,52s-99-20-135-52c2-19,14-37,35-52c55-36,144-36,199,0C521,510,533,529,535,548z"/>
<path class="st0" d="M400,600c110,0,200-90,200-200s-90-200-200-200s-200,90-200,200S290,600,400,600z"/>
</svg>
