<?xml version="1.0" encoding="utf-8"?>
<!-- Generator: Adobe Illustrator 28.2.0, SVG Export Plug-In . SVG Version: 6.00 Build 0)  -->
<svg version="1.1" id="Capa_1" xmlns="http://www.w3.org/2000/svg" xmlns:xlink="http://www.w3.org/1999/xlink" x="0px" y="0px"
	 viewBox="0 0 500 500" style="enable-background:new 0 0 500 500;" xml:space="preserve">
<style type="text/css">
	.st0{fill:none;stroke:#FFFFFF;stroke-width:3;stroke-linecap:round;stroke-linejoin:round;stroke-miterlimit:133.3333;}
</style>
<path class="st0" d="M252,266c-1,0-3,0-5,0c-35-1-63-30-63-65c0-36,29-66,66-66c36,0,66,29,66,66C315,236,288,264,252,266z"/>
<path class="st0" d="M385,398c-36,33-83,52-135,52s-99-20-135-52c2-19,14-37,35-52c55-36,144-36,199,0C371,360,383,379,385,398z"/>
<path class="st0" d="M250,450c110,0,200-90,200-200S360,50,250,50S50,140,50,250S140,450,250,450z"/>
</svg>
