<?xml version="1.0" encoding="utf-8"?>
<!-- Generator: Adobe Illustrator 28.2.0, SVG Export Plug-In . SVG Version: 6.00 Build 0)  -->
<svg version="1.1" id="Capa_1" xmlns="http://www.w3.org/2000/svg" xmlns:xlink="http://www.w3.org/1999/xlink" x="0px" y="0px"
	 viewBox="0 0 70 74.4" style="enable-background:new 0 0 70 74.4;" xml:space="preserve">
<style type="text/css">
	.st0{fill:#E3E3E3;}
</style>
<path class="st0" d="M19.6,50c2.1-1.6,4.5-2.9,7.1-3.8s5.4-1.4,8.2-1.4s5.6,0.5,8.2,1.4s5,2.2,7.1,3.8c1.5-1.7,2.6-3.6,3.4-5.8
	c0.8-2.2,1.2-4.5,1.2-6.9c0-5.5-1.9-10.3-5.8-14.2s-8.6-5.8-14.2-5.8s-10.3,1.9-14.2,5.8S15,31.7,15,37.2c0,2.5,0.4,4.8,1.2,6.9
	C17,46.3,18.2,48.3,19.6,50z M35,39.7c-2.5,0-4.5-0.8-6.2-2.5s-2.5-3.8-2.5-6.2s0.8-4.5,2.5-6.2s3.8-2.5,6.2-2.5s4.5,0.8,6.2,2.5
	s2.5,3.8,2.5,6.2s-0.8,4.5-2.5,6.2S37.5,39.7,35,39.7z M35,62.2c-3.5,0-6.7-0.7-9.8-2s-5.7-3.1-7.9-5.3S13.3,50,12,47
	c-1.3-3-2-6.3-2-9.8s0.7-6.7,2-9.8s3.1-5.7,5.3-7.9s4.9-4,7.9-5.3s6.3-2,9.8-2s6.7,0.7,9.8,2s5.7,3.1,7.9,5.3s4,4.9,5.3,7.9
	s2,6.3,2,9.8s-0.7,6.7-2,9.8c-1.3,3-3.1,5.7-5.3,7.9s-4.9,4-7.9,5.3S38.5,62.2,35,62.2z M35,57.2c2.2,0,4.3-0.3,6.2-1
	s3.8-1.6,5.4-2.8c-1.6-1.2-3.4-2.1-5.4-2.8c-2-0.6-4-1-6.2-1s-4.3,0.3-6.2,1c-2,0.6-3.8,1.6-5.4,2.8c1.6,1.2,3.4,2.1,5.4,2.8
	S32.8,57.2,35,57.2z M35,34.7c1.1,0,2-0.4,2.7-1.1s1.1-1.6,1.1-2.7s-0.4-2-1.1-2.7s-1.6-1.1-2.7-1.1c-1.1,0-2,0.4-2.7,1.1
	c-0.7,0.7-1.1,1.6-1.1,2.7s0.4,2,1.1,2.7C33,34.4,33.9,34.7,35,34.7z"/>
</svg>
