<?xml version="1.0" encoding="utf-8"?>
<!-- Generator: Adobe Illustrator 28.2.0, SVG Export Plug-In . SVG Version: 6.00 Build 0)  -->
<svg version="1.1" id="Capa_1" xmlns="http://www.w3.org/2000/svg" xmlns:xlink="http://www.w3.org/1999/xlink" x="0px" y="0px"
	 viewBox="0 0 800 800" style="enable-background:new 0 0 800 800;" xml:space="preserve">
<style type="text/css">
	.st0{fill:none;stroke:#FFFFFF;stroke-width:3;stroke-linecap:round;stroke-linejoin:round;stroke-miterlimit:133.3333;}
</style>
<path class="st0" d="M400.2,401.6c-0.1,0-0.3,0-0.5,0c-3.5-0.1-6.3-3-6.3-6.5c0-3.6,2.9-6.6,6.6-6.6c3.6,0,6.6,2.9,6.6,6.6
	C406.5,398.6,403.8,401.4,400.2,401.6z"/>
<path class="st0" d="M413.5,414.8c-3.6,3.3-8.3,5.2-13.5,5.2s-9.9-2-13.5-5.2c0.2-1.9,1.4-3.7,3.5-5.2c5.5-3.6,14.4-3.6,19.9,0
	C412.1,411,413.3,412.9,413.5,414.8z"/>
<path class="st0" d="M400,420c11,0,20-9,20-20c0-11-9-20-20-20c-11,0-20,9-20,20C380,411,389,420,400,420z"/>
</svg>
