<?xml version="1.0" encoding="utf-8"?>
<!-- Generator: Adobe Illustrator 28.2.0, SVG Export Plug-In . SVG Version: 6.00 Build 0)  -->
<svg version="1.1" id="Capa_1" xmlns="http://www.w3.org/2000/svg" xmlns:xlink="http://www.w3.org/1999/xlink" x="0px" y="0px"
	 viewBox="0 0 800 800" style="enable-background:new 0 0 800 800;" xml:space="preserve">
<style type="text/css">
	.st0{fill:none;stroke:#000000;stroke-linecap:round;stroke-linejoin:round;stroke-miterlimit:66.6667;}
</style>
<g>
	<path class="st0" d="M400,406.7v3.3h14.8c2.9,0,5.2-2.3,5.2-5.2c0-2.9-2.3-5.2-5.2-5.2c-0.5,0-1.1,0.1-1.6,0.3c0-0.1,0-0.2,0-0.3
		c0-4.7-3.8-8.5-8.5-8.5c-1.7,0-3.3,0.5-4.7,1.4l0,0V406.7z"/>
	<line class="st0" x1="380" y1="400.9" x2="380" y2="407.5"/>
	<line class="st0" x1="382.9" y1="398.4" x2="382.9" y2="409.2"/>
	<line class="st0" x1="385.7" y1="399.2" x2="385.7" y2="410"/>
	<line class="st0" x1="388.6" y1="410" x2="388.6" y2="396.3"/>
	<line class="st0" x1="391.4" y1="395.3" x2="391.4" y2="410"/>
	<line class="st0" x1="394.3" y1="410" x2="394.3" y2="396.3"/>
	<line class="st0" x1="397.1" y1="394.3" x2="397.1" y2="410"/>
</g>
</svg>
