<?xml version="1.0" encoding="utf-8"?>
<!-- Generator: Adobe Illustrator 28.2.0, SVG Export Plug-In . SVG Version: 6.00 Build 0)  -->
<svg version="1.1" id="Capa_1" xmlns="http://www.w3.org/2000/svg" xmlns:xlink="http://www.w3.org/1999/xlink" x="0px" y="0px"
	 viewBox="0 0 800 800" style="enable-background:new 0 0 800 800;" xml:space="preserve">
<style type="text/css">
	.st0{fill:none;stroke:#000000;stroke-width:3;stroke-linecap:round;stroke-linejoin:round;stroke-miterlimit:128;}
</style>
<path class="st0" d="M420,400c0,11-9,20-20,20c-11,0-20-9-20-20c0-11,9-20,20-20c5.3,0,10.4,2.1,14.1,5.9
	C417.9,389.6,420,394.7,420,400z"/>
<path d="M384.3,395.5c-0.9,0.8-1,2.1-0.2,3c0.8,0.9,2.1,1,3,0.2L384.3,395.5z M412.2,396.3c1.1,0.4,2.3-0.2,2.7-1.4
	c0.4-1.1-0.2-2.3-1.4-2.7L412.2,396.3z M387.2,401.2c-0.9,0.8-1,2.1-0.2,3c0.8,0.9,2.1,1,3,0.2L387.2,401.2z M410.9,402.1
	c1.1,0.3,2.3-0.4,2.6-1.6c0.3-1.1-0.4-2.3-1.6-2.6L410.9,402.1z M390,406.9c-0.9,0.8-1,2.1-0.2,3c0.8,0.9,2.1,1,3,0.2L390,406.9z
	 M410.9,407.8c1.1,0.3,2.3-0.4,2.6-1.6c0.3-1.1-0.4-2.3-1.6-2.6L410.9,407.8z M387.1,398.8c2.8-2.4,12.1-6.8,25.1-2.5l1.4-4.1
	c-14.4-4.8-25.3-0.1-29.2,3.3L387.1,398.8z M390,404.5c2.7-2.3,10-5.1,20.9-2.4l1-4.2c-11.9-3-20.8-0.1-24.8,3.3L390,404.5z
	 M392.8,410.2c1.5-1.3,3.3-2.5,6-3.1c2.7-0.6,6.6-0.7,12,0.7l1-4.2c-5.9-1.5-10.5-1.5-14-0.7c-3.6,0.8-6,2.5-7.9,4L392.8,410.2z"/>
</svg>
