<?xml version="1.0" encoding="utf-8"?>
<!-- Generator: Adobe Illustrator 28.2.0, SVG Export Plug-In . SVG Version: 6.00 Build 0)  -->
<svg version="1.1" id="Capa_1" xmlns="http://www.w3.org/2000/svg" xmlns:xlink="http://www.w3.org/1999/xlink" x="0px" y="0px"
	 viewBox="0 0 100 100" style="enable-background:new 0 0 100 100;" xml:space="preserve">
<style type="text/css">
	.st0{fill:#FFFFFF;}
	.st1{fill:#FFFFFF;stroke:#1C76AA;stroke-miterlimit:10;}
</style>
<path class="st0" d="M69.6,50.7c0,11-9,20-20,20s-20-9-20-20s9-20,20-20c5.3,0,10.4,2.1,14.1,5.9C67.5,40.3,69.6,45.4,69.6,50.7z"/>
<path class="st1" d="M34.7,45.8c-0.9,0.8-1,2.1-0.2,3s2.1,1,3,0.2L34.7,45.8z M62.5,46.6c1.1,0.4,2.3-0.2,2.7-1.4
	c0.4-1.1-0.2-2.3-1.4-2.7L62.5,46.6z M37.5,51.5c-0.9,0.8-1,2.1-0.2,3s2.1,1,3,0.2L37.5,51.5z M61.3,52.3c1.1,0.3,2.3-0.4,2.6-1.6
	c0.3-1.1-0.4-2.3-1.6-2.6L61.3,52.3z M40.4,57.2c-0.9,0.8-1,2.1-0.2,3s2.1,1,3,0.2L40.4,57.2z M61.3,58.1c1.1,0.3,2.3-0.4,2.6-1.6
	c0.3-1.1-0.4-2.3-1.6-2.6L61.3,58.1z M37.5,49c2.8-2.4,12.1-6.8,25.1-2.5l1.4-4.1c-14.4-4.8-25.3-0.1-29.2,3.3L37.5,49z M40.3,54.8
	c2.7-2.3,10-5.1,20.9-2.4l1-4.2c-11.9-3-20.8-0.1-24.8,3.3L40.3,54.8z M43.2,60.5c1.5-1.3,3.3-2.5,6-3.1s6.6-0.7,12,0.7l1-4.2
	c-5.9-1.5-10.5-1.5-14-0.7c-3.6,0.8-6,2.5-7.9,4L43.2,60.5z"/>
</svg>
