<?xml version="1.0" encoding="utf-8"?>
<!-- Generator: Adobe Illustrator 28.2.0, SVG Export Plug-In . SVG Version: 6.00 Build 0)  -->
<svg version="1.1" id="Capa_1" xmlns="http://www.w3.org/2000/svg" xmlns:xlink="http://www.w3.org/1999/xlink" x="0px" y="0px"
	 viewBox="0 0 800 800" style="enable-background:new 0 0 800 800;" xml:space="preserve">
<style type="text/css">
	.st0{fill:none;stroke:#000000;stroke-width:3;stroke-linecap:round;stroke-linejoin:round;stroke-miterlimit:128;}
</style>
<path class="st0" d="M414.2,417.6c5.8,0.2,10.6-4.3,10.8-10v-14.9c-0.2-5.8-5.1-10.3-10.8-10h-28.3c-5.8-0.2-10.6,4.3-10.8,10v14.9
	c0.2,5.8,5.1,10.3,10.8,10H414.2z"/>
<path class="st0" d="M398.8,393l7.9,5.4c0.5,0.3,0.8,0.8,0.8,1.4c0,0.6-0.3,1.1-0.8,1.4l-7.9,5.9c-1.5,1-3.8,0.1-3.8-1.4v-11.2
	C395,392.9,397.3,392,398.8,393z"/>
</svg>
