<svg width="44" height="44" viewBox="0 0 44 44" fill="none" xmlns="http://www.w3.org/2000/svg">
<path d="M39.5599 30.4252V35.8198C39.5619 36.3205 39.4594 36.8162 39.2587 37.2751C39.0581 37.734 38.7638 38.1459 38.3948 38.4844C38.0258 38.823 37.5901 39.0807 37.1157 39.2412C36.6413 39.4016 36.1386 39.4612 35.6399 39.4161C30.1066 38.8149 24.7914 36.9241 20.1216 33.8957C15.7769 31.1349 12.0933 27.4513 9.33249 23.1066C6.29353 18.4155 4.40232 13.0746 3.81208 7.5164C3.76715 7.01914 3.82624 6.51798 3.98561 6.04481C4.14497 5.57165 4.40111 5.13685 4.73772 4.7681C5.07433 4.39935 5.48404 4.10473 5.94075 3.90299C6.39746 3.70126 6.89118 3.59684 7.39046 3.59637H12.785C13.6577 3.58778 14.5037 3.8968 15.1654 4.46584C15.827 5.03489 16.2592 5.82511 16.3814 6.68924C16.6091 8.41561 17.0313 10.1107 17.6401 11.7421C17.882 12.3857 17.9344 13.0852 17.791 13.7577C17.6475 14.4301 17.3144 15.0474 16.8309 15.5363L14.5472 17.82C17.107 22.3218 20.8345 26.0492 25.3363 28.609L27.62 26.3254C28.1089 25.8419 28.7261 25.5087 29.3986 25.3653C30.0711 25.2219 30.7705 25.2742 31.4141 25.5162C33.0456 26.125 34.7407 26.5472 36.467 26.7749C37.3405 26.8981 38.1383 27.3381 38.7085 28.0111C39.2788 28.6842 39.5818 29.5433 39.5599 30.4252Z" stroke="black" stroke-width="2" stroke-linecap="round" stroke-linejoin="round"/>
</svg>
